<?xml version="1.0" encoding="utf-8"?>
<!-- Generator: Adobe Illustrator 26.5.0, SVG Export Plug-In . SVG Version: 6.00 Build 0)  -->
<svg version="1.2" baseProfile="tiny" xmlns="http://www.w3.org/2000/svg" xmlns:xlink="http://www.w3.org/1999/xlink" x="0px"
	 y="0px" viewBox="0 0 1333.2 954.4" overflow="visible" xml:space="preserve">
<g id="R">
	
		<ellipse transform="matrix(0.3805 -0.9248 0.9248 0.3805 440.5502 1109.9171)" fill="#CCCCCB" stroke="#000000" stroke-width="5" stroke-miterlimit="10" cx="1048.7" cy="226.1" rx="175.1" ry="140.3"/>
</g>
<g id="Z">
	<path fill="#5A5190" stroke="#000000" stroke-width="5" stroke-miterlimit="10" d="M963.6,98.7l16.3-41.5c1.8-4.7,7-7.1,11.8-5.6
		c76.3,24.4,150.4,53.7,222,87.7c4.9,2.3,6.9,8.3,4.3,13.1l-27.6,51.4"/>
</g>
<g id="L">
	
		<ellipse transform="matrix(0.9248 -0.3805 0.3805 0.9248 -65.0717 123.0978)" fill="#CCCCCB" stroke="#000000" stroke-width="5" stroke-miterlimit="10" cx="278.8" cy="226.1" rx="140.3" ry="175.1"/>
</g>
<g id="Zl">
	<path fill="#5A5190" stroke="#000000" stroke-width="5" stroke-miterlimit="10" d="M289.5,85.6l-5.1-11.5c-0.6-1.3-2.1-1.9-3.4-1.4
		c-21.3,7.9-41.9,17.2-61.7,27.7c-1.4,0.7-1.8,2.4-1,3.8l8.5,14.2"/>
</g>
<g id="Base">
	<path fill="#3C3760" stroke="#000000" stroke-width="5" stroke-miterlimit="10" d="M10.8,392.7c0,0-18.7,273.7,17.1,414.1
		s96.6,142.9,96.6,142.9s60.9,11.4,99.1-78c0,0,14.6-52,17.1-79.6C243,764.6,251.1,646,251.1,646"/>
	<path fill="#3C3760" stroke="#000000" stroke-width="5" stroke-miterlimit="10" d="M1318.1,392.7c0,0,18.7,273.7-17.1,414.1
		s-96.6,142.9-96.6,142.9s-60.9,11.4-99.1-78c0,0-14.6-52-17.1-79.6c-2.4-27.6-10.6-146.2-10.6-146.2"/>
	<g>
		<g>
			
				<path fill="#463F6F" stroke="#000000" stroke-width="5" stroke-linecap="round" stroke-linejoin="round" stroke-miterlimit="10" d="
				M287.2,726c3.9,10.3,8.9,20.3,15,30c49.1,77.8,152,101.1,229.9,51.9c77.8-49.1,101.1-152,51.9-229.9c-9.1-14.5-20.1-27-32.4-37.6
				c-23.4-24.5-38.6-50.8-48.4-75.4c-21.8-54.9-16.7-101.7-16.7-101.7l-0.2,0.1c0.9-45.2-10.9-91.2-36.9-132.3
				C395.3,145.6,295.9,106,202.1,124c-28.5,5.5-56.6,16.3-82.6,32.7C7.7,227.2-25.6,374.9,44.9,486.6
				c26.6,42.2,64.3,73.2,106.9,91.7c26.6,14.7,52.6,31.5,76.9,50.2c26.3,20.2,42.9,49.4,53.3,81.1c1,3.7,2.1,7.3,3.3,10.9L287.2,726
				z"/>
			<path fill="#463F6F" stroke="#000000" stroke-width="5" stroke-miterlimit="10" d="M1040.7,726c-3.9,10.3-8.9,20.3-15,30
				c-49.1,77.8-152,101.1-229.9,51.9c-77.8-49.1-101.1-152-51.9-229.9c9.1-14.5,20.1-27,32.4-37.6c23.4-24.5,38.6-50.8,48.4-75.4
				c21.8-54.9,16.7-101.7,16.7-101.7l0.2,0.1c-0.9-45.2,10.9-91.2,36.9-132.3C932.6,145.6,1032,106,1125.8,124
				c28.5,5.5,56.6,16.3,82.6,32.7c111.7,70.5,145.1,218.2,74.6,329.9c-26.6,42.2-64.3,73.2-106.9,91.7
				c-26.6,14.7-52.6,31.5-76.9,50.2c-26.3,20.2-42.9,49.4-53.3,81.1c-1,3.7-2.1,7.3-3.3,10.9L1040.7,726z"/>
		</g>
		<path fill="#463F6F" stroke="#000000" stroke-width="5" stroke-miterlimit="10" d="M840.4,363.4l0.2,0.1
			c-0.9-45.2,10.9-91.2,36.9-132.3c49-77.6,135.2-117.4,220.7-110.8C965,50.5,813.9,10.9,653.6,10.9c-163,0-316.4,40.9-450.5,113.1
			c93.8-18,193.2,21.6,247.3,107.3c25.9,41.1,37.8,87.1,36.9,132.3l0.2-0.1c0,0-5.1,46.7,16.7,101.7c47.3-14.2,97.5-21.8,149.5-21.8
			c58.3,0,114.5,9.6,167.8,27.3C845.8,413.3,840.4,363.4,840.4,363.4z"/>
		<line fill="none" stroke="#000000" stroke-width="5" stroke-miterlimit="10" x1="428.6" y1="475.8" x2="426.4" y2="475.8"/>
		<line fill="none" stroke="#000000" stroke-width="5" stroke-miterlimit="10" x1="348.5" y1="452" x2="348.5" y2="454.1"/>
	</g>
	<circle fill="#3B365F" stroke="#000000" stroke-width="5" stroke-miterlimit="10" cx="444.4" cy="667.8" r="112.2"/>
	<g>
		<path fill="#CCCCCB" d="M421.4,759.8c-5.4,0-9.9-4.4-9.9-9.9v-51.5H360c-5.4,0-9.9-4.4-9.9-9.9v-43.7c0-5.4,4.4-9.9,9.9-9.9h51.5
			v-51.5c0-5.4,4.4-9.9,9.9-9.9h43.7c5.4,0,9.9,4.4,9.9,9.9V635h51.5c5.4,0,9.9,4.4,9.9,9.9v43.7c0,5.4-4.4,9.9-9.9,9.9h-51.5v51.5
			c0,5.4-4.4,9.9-9.9,9.9H421.4z"/>
		<path d="M465.1,576.1c4.1,0,7.4,3.3,7.4,7.4v54h54c4.1,0,7.4,3.3,7.4,7.4v43.7c0,4.1-3.3,7.4-7.4,7.4h-54v54
			c0,4.1-3.3,7.4-7.4,7.4h-43.7c-4.1,0-7.4-3.3-7.4-7.4v-54h-54c-4.1,0-7.4-3.3-7.4-7.4v-43.7c0-4.1,3.3-7.4,7.4-7.4h54v-54
			c0-4.1,3.3-7.4,7.4-7.4H465.1 M465.1,571.1h-43.7c-6.8,0-12.4,5.6-12.4,12.4v49h-49c-6.8,0-12.4,5.6-12.4,12.4v43.7
			c0,6.8,5.6,12.4,12.4,12.4h49v49c0,6.8,5.6,12.4,12.4,12.4h43.7c6.8,0,12.4-5.6,12.4-12.4v-49h49c6.8,0,12.4-5.6,12.4-12.4v-43.7
			c0-6.8-5.6-12.4-12.4-12.4h-49v-49C477.4,576.7,471.9,571.1,465.1,571.1L465.1,571.1z"/>
	</g>
	<circle fill="#6A6A6A" cx="443.2" cy="666.7" r="22.3"/>
	<circle fill="#3D3C3C" cx="443.2" cy="666.7" r="15.3"/>
	<polygon fill="#C1C230" stroke="#000000" stroke-width="5" stroke-miterlimit="10" points="885.3,555.3 819.5,576.7 778.8,632.7 
		778.9,701.9 819.6,757.8 885.4,779.2 951.2,757.8 991.8,701.8 991.8,632.6 951.1,576.7 	"/>
	<circle fill="#5A5190" stroke="#000000" stroke-width="5" stroke-miterlimit="10" cx="249.8" cy="359.4" r="162.9"/>
	<circle fill="#5A5190" stroke="#000000" stroke-width="5" stroke-miterlimit="10" cx="1083.2" cy="359.7" r="148.9"/>
	<text transform="matrix(1 0 0 1 552.7881 314.702)" fill="#151522" font-family="'VarelaRound-Regular'" font-size="33.1471px">S</text>
	<text transform="matrix(1 0 0 1 573.3955 314.702)" fill="#151522" font-family="'VarelaRound-Regular'" font-size="33.1471px">T</text>
	<text transform="matrix(1 0 0 1 589.9458 314.702)" fill="#151522" font-family="'VarelaRound-Regular'" font-size="33.1471px">A</text>
	<text transform="matrix(1 0 0 1 613.7979 314.702)" fill="#151522" font-family="'VarelaRound-Regular'" font-size="33.1471px">R</text>
	<text transform="matrix(1 0 0 1 636.9507 314.702)" fill="#151522" font-family="'VarelaRound-Regular'" font-size="33.1471px">T</text>
	<text transform="matrix(1 0 0 1 653.7729 314.702)" fill="#151522" font-family="'VarelaRound-Regular'" font-size="33.1471px">/</text>
	<text transform="matrix(1 0 0 1 667.4092 314.702)" fill="#151522" font-family="'VarelaRound-Regular'" font-size="33.1471px">P</text>
	<text transform="matrix(1 0 0 1 687.2471 314.702)" fill="#151522" font-family="'VarelaRound-Regular'" font-size="33.1471px">A</text>
	<text transform="matrix(1 0 0 1 710.2246 314.702)" fill="#151522" font-family="'VarelaRound-Regular'" font-size="33.1471px">U</text>
	<text transform="matrix(1 0 0 1 734.8818 314.702)" fill="#151522" font-family="'VarelaRound-Regular'" font-size="33.1471px">S</text>
	<text transform="matrix(1 0 0 1 754.9668 314.702)" fill="#151522" font-family="'VarelaRound-Regular'" font-size="33.1471px">E</text>
	<polygon fill="#868687" stroke="#000000" stroke-width="5" stroke-miterlimit="10" points="249.7,238 178.4,261.2 134.3,321.9 
		134.3,396.9 178.4,457.6 249.8,480.8 321.1,457.6 365.2,396.9 365.2,321.9 321.1,261.2 	"/>
</g>
<g id="char">
	<g>
		<path fill="#463F6F" stroke="#000000" stroke-width="5" stroke-miterlimit="10" d="M793.3,181.3h-56.6c-7.1,0-12.9-5.8-12.9-12.9
			v-56.6c0-7.1,5.8-12.9,12.9-12.9h56.6c7.1,0,12.9,5.8,12.9,12.9v56.6C806.2,175.5,800.4,181.3,793.3,181.3z"/>
		<path fill="#5A5190" d="M768.5,164.9c-4.5,0-8.6-1-12.3-3c-3.6-2-6.5-4.8-8.6-8.5c-2.1-3.7-3.2-8.1-3.2-13.2
			c0-5.1,1.1-9.5,3.2-13.2c2.1-3.7,5-6.5,8.6-8.5c3.6-2,7.7-3,12.3-3c3.4,0,6.3,0.4,8.8,1.2c2.5,0.8,4.8,1.8,6.9,3
			c0.5,0.2,0.8,0.5,1.1,0.9c0.3,0.4,0.4,0.9,0.4,1.5c0,0.7-0.2,1.4-0.7,1.9c-0.5,0.6-1.2,0.8-2.1,0.8c-0.5,0-0.9-0.1-1.2-0.3
			c-1.8-1-3.7-1.7-5.6-2.3c-1.9-0.6-4.2-0.9-6.9-0.9c-4,0-7.4,0.8-10.2,2.5s-4.8,3.9-6.2,6.7c-1.4,2.8-2.1,6-2.1,9.5
			c0,3.5,0.7,6.7,2.1,9.5c1.4,2.8,3.4,5.1,6.2,6.7c2.8,1.7,6.1,2.5,10.2,2.5c2.7,0,5-0.3,6.9-0.9c1.9-0.6,3.8-1.4,5.6-2.3
			c0.4-0.2,0.8-0.3,1.2-0.3c0.9,0,1.6,0.3,2.1,0.8c0.5,0.6,0.7,1.2,0.7,1.9c0,0.6-0.2,1.2-0.4,1.5c-0.3,0.4-0.6,0.7-1.1,0.9
			c-2.1,1.2-4.4,2.2-6.9,3C774.8,164.4,771.9,164.9,768.5,164.9z"/>
	</g>
</g>
<g id="home">
	<g>
		<path fill="#463F6F" stroke="#000000" stroke-width="5" stroke-miterlimit="10" d="M664.4,179.7L664.4,179.7
			c-21.8,0-39.5-17.7-39.5-39.5v0c0-21.8,17.7-39.5,39.5-39.5h0c21.8,0,39.5,17.7,39.5,39.5v0C703.9,162,686.3,179.7,664.4,179.7z"
			/>
		<path fill="#5A5190" d="M645.3,160.6c0,0.9,0.7,1.6,1.6,1.6H682c0.9,0,1.6-0.7,1.6-1.6v-22.1h-38.3V160.6z M654.9,144.2
			c0-0.9,0.7-1.6,1.6-1.6h15.9c0.9,0,1.6,0.7,1.6,1.6v9.9c0,0.9-0.7,1.6-1.6,1.6h-15.9c-0.9,0-1.6-0.7-1.6-1.6V144.2z"/>
		<path fill="#5A5190" d="M688.9,135.7l-23.5-17.3c-0.6-0.4-1.3-0.4-1.9,0L640,135.7c-1.3,0.9-0.6,2.9,1,2.9h4.4v-0.9
			c0-0.9,0.7-1.6,1.6-1.6H682c0.9,0,1.6,0.7,1.6,1.6v0.9h4.4C689.5,138.6,690.1,136.6,688.9,135.7z"/>
	</g>
</g>
<g id="capture">
	<g>
		<path fill="#463F6F" stroke="#000000" stroke-width="5" stroke-miterlimit="10" d="M592.1,181.3h-56.6c-7.1,0-12.9-5.8-12.9-12.9
			v-56.6c0-7.1,5.8-12.9,12.9-12.9h56.6c7.1,0,12.9,5.8,12.9,12.9v56.6C605,175.5,599.2,181.3,592.1,181.3z"/>
		<path fill="#5A5190" d="M563.8,165.8L563.8,165.8c-14.2,0-25.7-11.5-25.7-25.7v0c0-14.2,11.5-25.7,25.7-25.7l0,0
			c14.2,0,25.7,11.5,25.7,25.7v0C589.5,154.3,578,165.8,563.8,165.8z"/>
	</g>
</g>
<g id="startpause">
	<circle fill="#CCCCCB" stroke="#000000" stroke-width="5" stroke-miterlimit="10" cx="670.5" cy="366.1" r="29.6"/>
</g>
<g id="lefttoggle">
	<g>
		<circle fill="#CCCCCB" stroke="#000000" stroke-width="5" stroke-miterlimit="10" cx="249.8" cy="359.4" r="94.5"/>
		<circle fill="#CCCCCB" stroke="#42383A" stroke-width="5" stroke-miterlimit="10" cx="249.8" cy="359.4" r="76"/>
		<circle fill="#CCCCCB" stroke="#42383A" stroke-width="5" stroke-miterlimit="10" cx="249.8" cy="359.4" r="54.3"/>
		<circle fill="#CCCCCB" stroke="#42383A" stroke-width="5" stroke-miterlimit="10" cx="249.8" cy="359.4" r="27.1"/>
	</g>
</g>
<g id="dleft">
	<path fill="#6A6A6A" d="M368.3,668.4l28.2,16.3c1.2,0.7,2.7-0.2,2.7-1.6v-32.6c0-1.4-1.5-2.2-2.7-1.6l-28.2,16.3
		C367.1,666,367.1,667.7,368.3,668.4z"/>
</g>
<g id="ddown">
	<path fill="#6A6A6A" d="M444.8,741.8l16.3-28.2c0.7-1.2-0.2-2.7-1.6-2.7h-32.6c-1.4,0-2.2,1.5-1.6,2.7l16.3,28.2
		C442.3,743,444.1,743,444.8,741.8z"/>
</g>
<g id="dright">
	<path fill="#6A6A6A" d="M518.2,665.3L490,649c-1.2-0.7-2.7,0.2-2.7,1.6v32.6c0,1.4,1.5,2.2,2.7,1.6l28.2-16.3
		C519.4,667.7,519.4,666,518.2,665.3z"/>
</g>
<g id="dup">
	<path fill="#6A6A6A" d="M441.7,591.9l-16.3,28.2c-0.7,1.2,0.2,2.7,1.6,2.7h32.6c1.4,0,2.2-1.5,1.6-2.7l-16.3-28.2
		C444.1,590.7,442.3,590.7,441.7,591.9z"/>
</g>
<g id="C">
	<circle fill="#F7EC13" stroke="#000000" stroke-width="5" stroke-miterlimit="10" cx="885.3" cy="667.3" r="59.7"/>
	<path fill="#7E7E32" d="M889.9,699.8c-6,0-11.4-1.3-16.2-3.9c-4.8-2.6-8.6-6.4-11.4-11.2c-2.8-4.9-4.2-10.7-4.2-17.4
		c0-6.8,1.4-12.6,4.2-17.4c2.8-4.8,6.6-8.6,11.4-11.2s10.2-3.9,16.2-3.9c4.5,0,8.3,0.5,11.6,1.6c3.3,1.1,6.3,2.4,9.1,4
		c0.6,0.3,1.1,0.7,1.4,1.2c0.3,0.5,0.5,1.2,0.6,2c0.1,1-0.2,1.8-0.9,2.5c-0.7,0.7-1.6,1.1-2.7,1.1c-0.6,0-1.1-0.1-1.6-0.4
		c-2.4-1.3-4.9-2.3-7.4-3.1c-2.5-0.8-5.6-1.2-9.2-1.2c-5.3,0-9.8,1.1-13.4,3.3c-3.6,2.2-6.3,5.1-8.2,8.8s-2.7,7.9-2.7,12.6
		c0,4.7,0.9,8.8,2.7,12.6s4.5,6.7,8.2,8.8c3.6,2.2,8.1,3.3,13.4,3.3c3.6,0,6.6-0.4,9.2-1.2c2.5-0.8,5-1.8,7.4-3.1
		c0.5-0.2,1-0.4,1.6-0.4c1.1,0,2.1,0.4,2.7,1.1c0.7,0.7,1,1.6,0.9,2.5c-0.1,0.8-0.3,1.5-0.6,2c-0.3,0.5-0.8,0.9-1.4,1.2
		c-2.8,1.6-5.8,2.9-9.1,4C898.2,699.3,894.3,699.8,889.9,699.8z"/>
</g>
<g id="x">
	<path fill="#CCCCCB" stroke="#000000" stroke-width="4.9647" stroke-miterlimit="10" d="M1264.2,379.1L1264.2,379.1
		c-6.5,15.9-25.7,22.4-40.8,13.9h0c-6.1-3.5-9.9-9.9-10-16.9l-0.6-19.2c-0.5-18.3-5.2-35.6-13.1-50.9c-1.6-3.1-3.3-6.1-5.1-9
		c-3.1-5-3.8-11.2-1.5-16.6c0.1-0.3,0.3-0.6,0.5-1h0c7.6-14.9,26.8-19.7,40.7-10.2v0c0.6,0.4,1.2,0.8,1.7,1.2
		c9.4,6.9,16.4,16.5,20.6,27.3c2.9,7.4,5.3,15,7.1,22.9l2.7,14.1c1,6.8,1.6,13.7,1.9,20.7c0.1,1.8,0.1,3.6,0.1,5.3
		c0,2.6-0.2,5.2-0.8,7.7C1266.7,371.9,1265.6,375.5,1264.2,379.1L1264.2,379.1c-6.5,15.9-25.7,22.4-40.8,13.9h0
		c-6.1-3.5-9.9-9.9-10-16.9"/>
	<path fill="#353132" d="M1225.4,348.5c-0.6,0-1.1-0.2-1.5-0.6c-0.4-0.4-0.6-0.9-0.6-1.5c0-0.5,0.2-1,0.5-1.4l11.9-14.4l-11.8-14.3
		c-0.3-0.4-0.5-0.9-0.5-1.4c0-0.6,0.2-1.2,0.6-1.6c0.4-0.4,1-0.6,1.6-0.6c0.8,0,1.5,0.3,1.9,0.9l10.9,13.6l10.9-13.7
		c0.4-0.5,0.9-0.8,1.7-0.8c0.6,0,1.2,0.2,1.6,0.6c0.4,0.4,0.7,0.9,0.7,1.6c0,0.5-0.1,0.9-0.4,1.3l-11.9,14.5l11.9,14.4
		c0.3,0.3,0.5,0.8,0.5,1.3c0,0.6-0.2,1.1-0.6,1.6c-0.4,0.5-1,0.7-1.7,0.7c-0.8,0-1.4-0.3-1.9-1l-11-13.7l-10.9,13.7
		C1226.7,348.2,1226.1,348.5,1225.4,348.5z"/>
</g>
<g id="y">
	<path fill="#CCCCCB" stroke="#000000" stroke-width="5" stroke-miterlimit="10" d="M1104.3,178.4L1104.3,178.4
		c16.1,6.5,22.7,25.8,14,40.8v0c-3.5,6.1-10.1,9.9-17.2,9.9l-19.5,0.6c-18.6,0.5-36.1,5.2-51.7,13c-3.1,1.6-6.2,3.3-9.1,5.1
		c-5.1,3.1-11.4,3.8-16.8,1.4c-0.3-0.1-0.7-0.3-1-0.5v0c-15.1-7.6-20-26.8-10.3-40.7h0c0.4-0.6,0.8-1.2,1.3-1.7
		c7-9.4,16.8-16.4,27.7-20.5c7.5-2.9,15.2-5.2,23.2-7.1l14.3-2.7c6.9-1,13.9-1.6,21-1.8c1.8-0.1,3.6-0.1,5.4-0.1
		c2.6,0,5.3,0.3,7.8,0.8C1097.1,175.9,1100.8,177,1104.3,178.4L1104.3,178.4c16.1,6.5,22.7,25.8,14,40.8v0
		c-3.5,6.1-10.1,9.9-17.2,9.9"/>
	<path fill="#353132" d="M1055,224.2c-0.7,0-1.2-0.2-1.7-0.7c-0.5-0.4-0.7-1-0.7-1.7v-13.2l-12.3-17.3c-0.3-0.4-0.4-0.9-0.4-1.4
		c0-0.7,0.2-1.2,0.6-1.7c0.4-0.5,1-0.7,1.6-0.7c0.9,0,1.5,0.4,2.1,1.2l10.8,15.7l10.8-15.7c0.5-0.8,1.2-1.2,2.1-1.2
		c0.7,0,1.2,0.2,1.7,0.7c0.4,0.5,0.6,1,0.6,1.7c0,0.5-0.1,0.9-0.4,1.4l-12.4,17.3v13.2c0,0.7-0.2,1.2-0.7,1.7
		C1056.2,224,1055.6,224.2,1055,224.2z"/>
</g>
<g id="B">
	<g>
		<circle fill="#ED2024" stroke="#000000" stroke-width="5" stroke-miterlimit="10" cx="939.1" cy="438.4" r="44"/>
		<path fill="#7F1416" d="M925.4,459.4c-0.8,0-1.4-0.3-1.9-0.8c-0.5-0.5-0.8-1.2-0.8-1.9v-36.5c0-0.8,0.3-1.4,0.8-2
			c0.5-0.5,1.2-0.8,1.9-0.8h14.2c4.4,0,7.8,1,10,3c2.3,2,3.4,4.6,3.4,7.9c0,2.5-0.6,4.5-1.8,6c-1.2,1.5-2.6,2.6-4.1,3.3
			c1.4,0.4,2.8,1.1,4.1,2c1.3,0.9,2.3,2,3,3.3c0.8,1.3,1.1,2.9,1.1,4.8c0,2.3-0.5,4.4-1.5,6.2c-1,1.8-2.7,3.2-4.9,4.2
			c-2.3,1-5.3,1.5-9,1.5H925.4z M928.2,435.5h10c2.5,0,4.5-0.3,5.9-0.9c1.4-0.6,2.4-1.4,2.9-2.5c0.6-1,0.8-2.2,0.8-3.5
			c0-1.9-0.8-3.4-2.3-4.5c-1.5-1.1-3.7-1.7-6.4-1.7h-11V435.5z M928.2,454.2h11.3c2.8,0,4.9-0.3,6.5-0.9c1.5-0.6,2.6-1.4,3.3-2.4
			c0.6-1,1-2.2,1-3.6c0-2.4-0.9-4.1-2.7-5.2c-1.8-1.1-4.5-1.7-7.9-1.7h-11.3V454.2z"/>
	</g>
</g>
<g id="A">
	<g>
		<circle fill="#6FCCDD" stroke="#000000" stroke-width="5" stroke-miterlimit="10" cx="1083.1" cy="359.4" r="77.2"/>
		<path fill="#356268" d="M1063.6,384.2c-1,0-1.8-0.3-2.3-0.9s-0.8-1.4-0.8-2.2c0-0.4,0.1-0.8,0.4-1.4l17.9-42.2
			c0.3-0.7,0.8-1.4,1.5-2c0.7-0.6,1.5-0.9,2.6-0.9h0.7c1.1,0,1.9,0.3,2.6,0.9c0.7,0.6,1.1,1.3,1.5,2l17.9,42.2
			c0.2,0.6,0.4,1,0.4,1.4c0,0.9-0.3,1.6-0.8,2.2s-1.3,0.9-2.3,0.9c-1.5,0-2.5-0.7-3-2l-4.6-10.9h-23.9l-4.6,10.9
			C1066,383.6,1065,384.2,1063.6,384.2z M1073.6,365.5h18.9l-9.5-22.8L1073.6,365.5z"/>
	</g>
</g>
</svg>
